<svg xmlns="http://www.w3.org/2000/svg" xmlns:xlink="http://www.w3.org/1999/xlink" width="500" zoomAndPan="magnify" viewBox="0 0 375 374.999991" height="500" preserveAspectRatio="xMidYMid meet" version="1.0"><defs><g/></defs><rect x="-37.5" width="450" fill="#ffffff" y="-37.499999" height="449.999989" fill-opacity="1"/><rect x="-37.5" width="450" fill="#ffffff" y="-37.499999" height="449.999989" fill-opacity="1"/><rect x="-37.5" width="450" fill="#ffffff" y="-37.499999" height="449.999989" fill-opacity="1"/><g fill="#272727" fill-opacity="1"><g transform="translate(9.692472, 206.112353)"><g><path d="M 29.496094 -23.332031 L 10.371094 -23.332031 L 10.371094 -40.445312 L 3.457031 -40.445312 L 3.457031 0 L 10.371094 0 L 10.371094 -22.46875 L 29.496094 -22.46875 L 29.496094 0 L 36.410156 0 L 36.410156 -40.445312 L 29.496094 -40.445312 Z M 29.496094 -23.332031 "/></g></g></g><g fill="#272727" fill-opacity="1"><g transform="translate(49.555965, 206.112353)"><g><path d="M 22.007812 0.980469 C 35.085938 0.980469 41.421875 -8.640625 41.421875 -20.105469 C 41.421875 -32.609375 35.085938 -41.421875 22.007812 -41.421875 C 8.988281 -41.421875 2.59375 -32.609375 2.59375 -20.105469 C 2.59375 -8.640625 8.988281 0.980469 22.007812 0.980469 Z M 22.007812 0.113281 C 12.90625 0.113281 9.507812 -9.792969 9.507812 -20.105469 C 9.507812 -30.304688 12.328125 -40.558594 22.007812 -40.558594 C 31.398438 -40.558594 34.511719 -30.304688 34.511719 -20.105469 C 34.511719 -9.792969 31.398438 0.113281 22.007812 0.113281 Z M 22.007812 0.113281 "/></g></g></g><g fill="#272727" fill-opacity="1"><g transform="translate(93.567108, 206.112353)"><g><path d="M 6.625 0 C 5.359375 -4.667969 5.183594 -9.101562 5.183594 -13.597656 L 5.183594 -36.355469 L 30.304688 0 L 36.238281 0 L 36.238281 -27.710938 C 36.238281 -31.6875 36.640625 -36.46875 37.679688 -40.445312 L 33.933594 -40.445312 C 35.027344 -36.46875 35.375 -31.746094 35.375 -27.710938 L 35.375 -2.9375 L 9.390625 -40.445312 L 4.320312 -40.445312 L 4.320312 -13.597656 C 4.320312 -8.640625 4.148438 -4.667969 2.878906 0 Z M 6.625 0 "/></g></g></g><g fill="#272727" fill-opacity="1"><g transform="translate(133.661021, 206.112353)"><g><path d="M 10.371094 -22.355469 L 30.363281 -22.355469 L 30.363281 -23.21875 L 10.371094 -23.21875 L 10.371094 -39.582031 C 21.375 -39.582031 27.769531 -38.601562 33.53125 -35.835938 L 33.53125 -40.445312 L 3.457031 -40.445312 L 3.457031 0 L 34.394531 0 L 34.394531 -4.609375 C 27.769531 -1.554688 21.257812 -0.863281 10.371094 -0.863281 Z M 10.371094 -22.355469 "/></g></g></g><g fill="#272727" fill-opacity="1"><g transform="translate(171.277868, 206.112353)"><g><path d="M 28.113281 -40.445312 C 28.519531 -36.355469 28.289062 -33.703125 26.789062 -30.765625 L 20.511719 -18.78125 L 9.21875 -40.445312 L 2.304688 -40.445312 L 14.058594 -17.976562 L 14.058594 0 L 20.972656 0 L 20.972656 -17.976562 L 32.722656 -40.445312 Z M 28.113281 -40.445312 "/></g></g></g><g fill="#272727" fill-opacity="1"><g transform="translate(205.438351, 206.112353)"><g/></g></g><g fill="#272727" fill-opacity="1"><g transform="translate(218.687771, 206.112353)"><g><path d="M 22.007812 0 C 31.054688 0 35.433594 -5.992188 35.433594 -11.695312 C 35.433594 -18.378906 28.460938 -20.394531 23.96875 -20.683594 L 23.96875 -20.914062 C 27.828125 -21.203125 32.78125 -23.679688 32.78125 -30.476562 C 32.78125 -35.203125 29.265625 -40.445312 20.683594 -40.445312 L 3.457031 -40.445312 L 3.457031 0 Z M 10.371094 -39.582031 L 17.6875 -39.582031 C 23.621094 -39.582031 26.386719 -34.566406 26.386719 -30.132812 C 26.386719 -23.507812 21.605469 -21.144531 18.667969 -21.144531 L 10.371094 -21.144531 Z M 10.371094 -20.28125 L 18.667969 -20.28125 C 22.585938 -20.28125 28.574219 -18.378906 28.574219 -11.121094 C 28.574219 -6.335938 25.0625 -0.863281 18.207031 -0.863281 L 10.371094 -0.863281 Z M 10.371094 -20.28125 "/></g></g></g><g fill="#272727" fill-opacity="1"><g transform="translate(256.304606, 206.112353)"><g><path d="M 30.417969 0 L 30.417969 -4.609375 C 24.601562 -1.726562 19.242188 -0.863281 10.371094 -0.863281 L 10.371094 -40.445312 L 3.457031 -40.445312 L 3.457031 0 Z M 30.417969 0 "/></g></g></g><g fill="#272727" fill-opacity="1"><g transform="translate(288.967309, 206.112353)"><g><path d="M 19.53125 0.863281 C 28.921875 0.863281 35.949219 -4.148438 35.949219 -14.113281 L 35.949219 -40.445312 L 29.035156 -40.445312 L 29.035156 -10.371094 C 29.035156 -3.054688 24.542969 0 19.53125 0 C 14.460938 0 9.851562 -3.054688 9.851562 -10.371094 L 9.851562 -40.445312 L 2.878906 -40.445312 L 2.878906 -14.113281 C 2.878906 -4.148438 10.082031 0.863281 19.53125 0.863281 Z M 19.53125 0.863281 "/></g></g></g><g fill="#272727" fill-opacity="1"><g transform="translate(327.678689, 206.112353)"><g><path d="M 10.371094 -22.355469 L 30.363281 -22.355469 L 30.363281 -23.21875 L 10.371094 -23.21875 L 10.371094 -39.582031 C 21.375 -39.582031 27.769531 -38.601562 33.53125 -35.835938 L 33.53125 -40.445312 L 3.457031 -40.445312 L 3.457031 0 L 34.394531 0 L 34.394531 -4.609375 C 27.769531 -1.554688 21.257812 -0.863281 10.371094 -0.863281 Z M 10.371094 -22.355469 "/></g></g></g></svg>